<svg xmlns="http://www.w3.org/2000/svg" viewBox="0 0 700 260" role="img" aria-label="C E G keys highlighted, with right-hand fingers 1 3 5. This exact example is sourced to Yamaha."><rect width="100%" height="100%" fill="white"/><g font-family="sans-serif" fill="#173e4d"><text x="30" y="32" font-size="21">C major: documented right-hand example</text><text x="30" y="58" font-size="14">Yamaha: usual root-position fingering 1–3–5; not a rule for other chords.</text></g><rect x="75" y="83" width="75" height="123" fill="#d2e9df" stroke="#173e4d"/><text x="111" y="188" text-anchor="middle" font-family="sans-serif" font-size="16">C</text><rect x="150" y="83" width="75" height="123" fill="white" stroke="#173e4d"/><text x="186" y="188" text-anchor="middle" font-family="sans-serif" font-size="16">D</text><rect x="225" y="83" width="75" height="123" fill="#d2e9df" stroke="#173e4d"/><text x="261" y="188" text-anchor="middle" font-family="sans-serif" font-size="16">E</text><rect x="300" y="83" width="75" height="123" fill="white" stroke="#173e4d"/><text x="336" y="188" text-anchor="middle" font-family="sans-serif" font-size="16">F</text><rect x="375" y="83" width="75" height="123" fill="#d2e9df" stroke="#173e4d"/><text x="411" y="188" text-anchor="middle" font-family="sans-serif" font-size="16">G</text><rect x="450" y="83" width="75" height="123" fill="white" stroke="#173e4d"/><text x="486" y="188" text-anchor="middle" font-family="sans-serif" font-size="16">A</text><rect x="525" y="83" width="75" height="123" fill="white" stroke="#173e4d"/><text x="561" y="188" text-anchor="middle" font-family="sans-serif" font-size="16">B</text><rect x="132" y="83" width="36" height="66" fill="#173e4d"/><rect x="207" y="83" width="36" height="66" fill="#173e4d"/><rect x="357" y="83" width="36" height="66" fill="#173e4d"/><rect x="432" y="83" width="36" height="66" fill="#173e4d"/><rect x="507" y="83" width="36" height="66" fill="#173e4d"/><text x="112" y="236" text-anchor="middle" font-family="sans-serif" font-size="20">1</text><text x="262" y="236" text-anchor="middle" font-family="sans-serif" font-size="20">3</text><text x="412" y="236" text-anchor="middle" font-family="sans-serif" font-size="20">5</text></svg>