<svg xmlns="http://www.w3.org/2000/svg" viewBox="0 0 612 792" role="img" aria-label="B major Piano Chord in root position and both inversions"><rect width="612" height="792" fill="white"/><g font-family="sans-serif" fill="#183f50"><text x="44" y="46" font-size="21">B major Piano Chord</text><text x="44" y="73" font-size="12">Three positions; written note names and octave numbers.</text></g><text x="48" y="141" font-family="sans-serif" font-size="14" font-weight="bold">Root position · B</text><text x="48" y="163" font-family="sans-serif" font-size="10">Notes: B4 – D#5 – F#5   Lowest: B4</text><rect x="50.00" y="174" width="63.75" height="66" fill="#ffffff" stroke="#243e48"/><rect x="113.75" y="174" width="63.75" height="66" fill="#cce8de" stroke="#243e48"/><rect x="177.50" y="174" width="63.75" height="66" fill="#ffffff" stroke="#243e48"/><rect x="241.25" y="174" width="63.75" height="66" fill="#ffffff" stroke="#243e48"/><rect x="305.00" y="174" width="63.75" height="66" fill="#ffffff" stroke="#243e48"/><rect x="368.75" y="174" width="63.75" height="66" fill="#ffffff" stroke="#243e48"/><rect x="432.50" y="174" width="63.75" height="66" fill="#ffffff" stroke="#243e48"/><rect x="496.25" y="174" width="63.75" height="66" fill="#ffffff" stroke="#243e48"/><rect x="94.62" y="174" width="38.25" height="38" fill="#213640"/><rect x="222.12" y="174" width="38.25" height="38" fill="#213640"/><rect x="285.88" y="174" width="38.25" height="38" fill="#286d6c"/><rect x="413.38" y="174" width="38.25" height="38" fill="#286d6c"/><rect x="477.12" y="174" width="38.25" height="38" fill="#213640"/><text x="145.62" y="232" text-anchor="middle" font-family="sans-serif" font-size="8" fill="#153743">B4</text><text x="305.00" y="198" text-anchor="middle" font-family="sans-serif" font-size="8" fill="#ffffff">D#5</text><text x="432.50" y="198" text-anchor="middle" font-family="sans-serif" font-size="8" fill="#ffffff">F#5</text><text x="48" y="299" font-family="sans-serif" font-size="14" font-weight="bold">First inversion · B/D#</text><text x="48" y="321" font-family="sans-serif" font-size="10">Notes: D#4 – F#4 – B4   Lowest: D#4</text><rect x="50.00" y="332" width="56.67" height="66" fill="#ffffff" stroke="#243e48"/><rect x="106.67" y="332" width="56.67" height="66" fill="#ffffff" stroke="#243e48"/><rect x="163.33" y="332" width="56.67" height="66" fill="#ffffff" stroke="#243e48"/><rect x="220.00" y="332" width="56.67" height="66" fill="#ffffff" stroke="#243e48"/><rect x="276.67" y="332" width="56.67" height="66" fill="#ffffff" stroke="#243e48"/><rect x="333.33" y="332" width="56.67" height="66" fill="#ffffff" stroke="#243e48"/><rect x="390.00" y="332" width="56.67" height="66" fill="#cce8de" stroke="#243e48"/><rect x="446.67" y="332" width="56.67" height="66" fill="#ffffff" stroke="#243e48"/><rect x="503.33" y="332" width="56.67" height="66" fill="#ffffff" stroke="#243e48"/><rect x="89.67" y="332" width="34.00" height="38" fill="#213640"/><rect x="146.33" y="332" width="34.00" height="38" fill="#286d6c"/><rect x="259.67" y="332" width="34.00" height="38" fill="#286d6c"/><rect x="316.33" y="332" width="34.00" height="38" fill="#213640"/><rect x="373.00" y="332" width="34.00" height="38" fill="#213640"/><rect x="486.33" y="332" width="34.00" height="38" fill="#213640"/><text x="163.33" y="356" text-anchor="middle" font-family="sans-serif" font-size="8" fill="#ffffff">D#4</text><text x="276.67" y="356" text-anchor="middle" font-family="sans-serif" font-size="8" fill="#ffffff">F#4</text><text x="418.33" y="390" text-anchor="middle" font-family="sans-serif" font-size="8" fill="#153743">B4</text><text x="48" y="457" font-family="sans-serif" font-size="14" font-weight="bold">Second inversion · B/F#</text><text x="48" y="479" font-family="sans-serif" font-size="10">Notes: F#4 – B4 – D#5   Lowest: F#4</text><rect x="50.00" y="490" width="56.67" height="66" fill="#ffffff" stroke="#243e48"/><rect x="106.67" y="490" width="56.67" height="66" fill="#ffffff" stroke="#243e48"/><rect x="163.33" y="490" width="56.67" height="66" fill="#ffffff" stroke="#243e48"/><rect x="220.00" y="490" width="56.67" height="66" fill="#ffffff" stroke="#243e48"/><rect x="276.67" y="490" width="56.67" height="66" fill="#cce8de" stroke="#243e48"/><rect x="333.33" y="490" width="56.67" height="66" fill="#ffffff" stroke="#243e48"/><rect x="390.00" y="490" width="56.67" height="66" fill="#ffffff" stroke="#243e48"/><rect x="446.67" y="490" width="56.67" height="66" fill="#ffffff" stroke="#243e48"/><rect x="503.33" y="490" width="56.67" height="66" fill="#ffffff" stroke="#243e48"/><rect x="146.33" y="490" width="34.00" height="38" fill="#286d6c"/><rect x="203.00" y="490" width="34.00" height="38" fill="#213640"/><rect x="259.67" y="490" width="34.00" height="38" fill="#213640"/><rect x="373.00" y="490" width="34.00" height="38" fill="#213640"/><rect x="429.67" y="490" width="34.00" height="38" fill="#286d6c"/><text x="163.33" y="514" text-anchor="middle" font-family="sans-serif" font-size="8" fill="#ffffff">F#4</text><text x="305.00" y="548" text-anchor="middle" font-family="sans-serif" font-size="8" fill="#153743">B4</text><text x="446.67" y="514" text-anchor="middle" font-family="sans-serif" font-size="8" fill="#ffffff">D#5</text></svg>