<svg xmlns="http://www.w3.org/2000/svg" viewBox="0 0 612.0 792.0" role="img" aria-label="Six blank piano grand staffs with treble and bass clefs"><rect width="100%" height="100%" fill="white"/><text x="46" y="48" font-family="sans-serif" font-size="20" font-weight="bold">Blank Piano Staff</text><path d="M50 112H566.0" stroke="black" stroke-width=".55"/><path d="M50 119H566.0" stroke="black" stroke-width=".55"/><path d="M50 126H566.0" stroke="black" stroke-width=".55"/><path d="M50 133H566.0" stroke="black" stroke-width=".55"/><path d="M50 140H566.0" stroke="black" stroke-width=".55"/><path d="M50 168H566.0" stroke="black" stroke-width=".55"/><path d="M50 175H566.0" stroke="black" stroke-width=".55"/><path d="M50 182H566.0" stroke="black" stroke-width=".55"/><path d="M50 189H566.0" stroke="black" stroke-width=".55"/><path d="M50 196H566.0" stroke="black" stroke-width=".55"/><path d="M50 112V196 M43 112 C31 122 43 145 33 154 C43 163 31 186 43 196" fill="none" stroke="black"/><path d="M376 415C374 427 376 428 382 434C398 449 419 470 438 491C522 583 572 702 572 815C572 902 548 988 507 1048C492 1070 466 1098 455 1098C441 1098 410 1072 390 1050C316 968 292 843 292 739C292 681 299 616 306 575C308 563 309 561 297 551C233 498 164 437 112 373C43 287 0 194 0 87C0 -87 119 -252 364 -252C387 -252 413 -250 433 -246C444 -244 446 -243 448 -255C460 -322 475 -409 475 -456C475 -604 375 -622 316 -622C262 -622 236 -606 236 -593C236 -586 245 -583 268 -576C299 -567 335 -540 335 -482C335 -427 300 -380 239 -380C172 -380 132 -433 132 -495C132 -560 171 -658 322 -658C389 -658 519 -628 519 -458C519 -401 501 -306 490 -244C488 -232 489 -233 503 -227C604 -187 671 -102 671 11C671 139 577 252 430 252C404 252 404 252 401 270ZM470 943C503 943 530 916 530 861C530 792 497 728 419 650C403 634 379 611 356 591C349 585 345 586 343 599C339 625 337 659 337 691C337 847 409 943 470 943ZM361 262C364 243 364 244 346 238C258 208 201 129 201 44C201 -46 248 -110 316 -133C324 -136 336 -139 343 -139C351 -139 355 -134 355 -128C355 -121 347 -118 340 -115C298 -97 268 -54 268 -8C268 49 307 92 368 109C384 113 386 112 388 101L438 -197C440 -208 439 -208 424 -211C408 -214 388 -216 368 -216C193 -216 80 -119 80 20C80 79 90 158 173 252C233 319 279 356 326 394C336 402 338 401 340 390ZM430 103C428 115 429 118 441 117C522 110 589 42 589 -46C589 -109 551 -160 495 -188C483 -194 481 -194 479 -182Z" transform="translate(58,133) scale(0.028, -0.028)"/><path d="M252 262C78 262 0 135 0 39C0 -41 42 -110 123 -110C186 -110 229 -66 229 -4C229 60 182 100 133 100C106 100 96 93 83 93C70 93 67 101 67 111C67 151 127 224 229 224C335 224 381 120 381 -37C381 -140 359 -260 297 -356C237 -449 134 -534 10 -605C1 -610 -5 -615 -5 -623C-5 -629 -1 -635 8 -635C13 -635 19 -633 25 -630C158 -565 286 -489 392 -375C479 -281 531 -159 531 -28C531 146 425 262 252 262ZM629 180C598 180 574 156 574 125C574 94 598 70 629 70C660 70 684 94 684 125C684 156 660 180 629 180ZM630 -71C599 -71 576 -94 576 -125C576 -156 599 -179 630 -179C661 -179 684 -156 684 -125C684 -94 661 -71 630 -71Z" transform="translate(58,175) scale(0.028, -0.028)"/><path d="M50 214H566.0" stroke="black" stroke-width=".55"/><path d="M50 221H566.0" stroke="black" stroke-width=".55"/><path d="M50 228H566.0" stroke="black" stroke-width=".55"/><path d="M50 235H566.0" stroke="black" stroke-width=".55"/><path d="M50 242H566.0" stroke="black" stroke-width=".55"/><path d="M50 270H566.0" stroke="black" stroke-width=".55"/><path d="M50 277H566.0" stroke="black" stroke-width=".55"/><path d="M50 284H566.0" stroke="black" stroke-width=".55"/><path d="M50 291H566.0" stroke="black" stroke-width=".55"/><path d="M50 298H566.0" stroke="black" stroke-width=".55"/><path d="M50 214V298 M43 214 C31 224 43 247 33 256 C43 265 31 288 43 298" fill="none" stroke="black"/><path d="M376 415C374 427 376 428 382 434C398 449 419 470 438 491C522 583 572 702 572 815C572 902 548 988 507 1048C492 1070 466 1098 455 1098C441 1098 410 1072 390 1050C316 968 292 843 292 739C292 681 299 616 306 575C308 563 309 561 297 551C233 498 164 437 112 373C43 287 0 194 0 87C0 -87 119 -252 364 -252C387 -252 413 -250 433 -246C444 -244 446 -243 448 -255C460 -322 475 -409 475 -456C475 -604 375 -622 316 -622C262 -622 236 -606 236 -593C236 -586 245 -583 268 -576C299 -567 335 -540 335 -482C335 -427 300 -380 239 -380C172 -380 132 -433 132 -495C132 -560 171 -658 322 -658C389 -658 519 -628 519 -458C519 -401 501 -306 490 -244C488 -232 489 -233 503 -227C604 -187 671 -102 671 11C671 139 577 252 430 252C404 252 404 252 401 270ZM470 943C503 943 530 916 530 861C530 792 497 728 419 650C403 634 379 611 356 591C349 585 345 586 343 599C339 625 337 659 337 691C337 847 409 943 470 943ZM361 262C364 243 364 244 346 238C258 208 201 129 201 44C201 -46 248 -110 316 -133C324 -136 336 -139 343 -139C351 -139 355 -134 355 -128C355 -121 347 -118 340 -115C298 -97 268 -54 268 -8C268 49 307 92 368 109C384 113 386 112 388 101L438 -197C440 -208 439 -208 424 -211C408 -214 388 -216 368 -216C193 -216 80 -119 80 20C80 79 90 158 173 252C233 319 279 356 326 394C336 402 338 401 340 390ZM430 103C428 115 429 118 441 117C522 110 589 42 589 -46C589 -109 551 -160 495 -188C483 -194 481 -194 479 -182Z" transform="translate(58,235) scale(0.028, -0.028)"/><path d="M252 262C78 262 0 135 0 39C0 -41 42 -110 123 -110C186 -110 229 -66 229 -4C229 60 182 100 133 100C106 100 96 93 83 93C70 93 67 101 67 111C67 151 127 224 229 224C335 224 381 120 381 -37C381 -140 359 -260 297 -356C237 -449 134 -534 10 -605C1 -610 -5 -615 -5 -623C-5 -629 -1 -635 8 -635C13 -635 19 -633 25 -630C158 -565 286 -489 392 -375C479 -281 531 -159 531 -28C531 146 425 262 252 262ZM629 180C598 180 574 156 574 125C574 94 598 70 629 70C660 70 684 94 684 125C684 156 660 180 629 180ZM630 -71C599 -71 576 -94 576 -125C576 -156 599 -179 630 -179C661 -179 684 -156 684 -125C684 -94 661 -71 630 -71Z" transform="translate(58,277) scale(0.028, -0.028)"/><path d="M50 316H566.0" stroke="black" stroke-width=".55"/><path d="M50 323H566.0" stroke="black" stroke-width=".55"/><path d="M50 330H566.0" stroke="black" stroke-width=".55"/><path d="M50 337H566.0" stroke="black" stroke-width=".55"/><path d="M50 344H566.0" stroke="black" stroke-width=".55"/><path d="M50 372H566.0" stroke="black" stroke-width=".55"/><path d="M50 379H566.0" stroke="black" stroke-width=".55"/><path d="M50 386H566.0" stroke="black" stroke-width=".55"/><path d="M50 393H566.0" stroke="black" stroke-width=".55"/><path d="M50 400H566.0" stroke="black" stroke-width=".55"/><path d="M50 316V400 M43 316 C31 326 43 349 33 358 C43 367 31 390 43 400" fill="none" stroke="black"/><path d="M376 415C374 427 376 428 382 434C398 449 419 470 438 491C522 583 572 702 572 815C572 902 548 988 507 1048C492 1070 466 1098 455 1098C441 1098 410 1072 390 1050C316 968 292 843 292 739C292 681 299 616 306 575C308 563 309 561 297 551C233 498 164 437 112 373C43 287 0 194 0 87C0 -87 119 -252 364 -252C387 -252 413 -250 433 -246C444 -244 446 -243 448 -255C460 -322 475 -409 475 -456C475 -604 375 -622 316 -622C262 -622 236 -606 236 -593C236 -586 245 -583 268 -576C299 -567 335 -540 335 -482C335 -427 300 -380 239 -380C172 -380 132 -433 132 -495C132 -560 171 -658 322 -658C389 -658 519 -628 519 -458C519 -401 501 -306 490 -244C488 -232 489 -233 503 -227C604 -187 671 -102 671 11C671 139 577 252 430 252C404 252 404 252 401 270ZM470 943C503 943 530 916 530 861C530 792 497 728 419 650C403 634 379 611 356 591C349 585 345 586 343 599C339 625 337 659 337 691C337 847 409 943 470 943ZM361 262C364 243 364 244 346 238C258 208 201 129 201 44C201 -46 248 -110 316 -133C324 -136 336 -139 343 -139C351 -139 355 -134 355 -128C355 -121 347 -118 340 -115C298 -97 268 -54 268 -8C268 49 307 92 368 109C384 113 386 112 388 101L438 -197C440 -208 439 -208 424 -211C408 -214 388 -216 368 -216C193 -216 80 -119 80 20C80 79 90 158 173 252C233 319 279 356 326 394C336 402 338 401 340 390ZM430 103C428 115 429 118 441 117C522 110 589 42 589 -46C589 -109 551 -160 495 -188C483 -194 481 -194 479 -182Z" transform="translate(58,337) scale(0.028, -0.028)"/><path d="M252 262C78 262 0 135 0 39C0 -41 42 -110 123 -110C186 -110 229 -66 229 -4C229 60 182 100 133 100C106 100 96 93 83 93C70 93 67 101 67 111C67 151 127 224 229 224C335 224 381 120 381 -37C381 -140 359 -260 297 -356C237 -449 134 -534 10 -605C1 -610 -5 -615 -5 -623C-5 -629 -1 -635 8 -635C13 -635 19 -633 25 -630C158 -565 286 -489 392 -375C479 -281 531 -159 531 -28C531 146 425 262 252 262ZM629 180C598 180 574 156 574 125C574 94 598 70 629 70C660 70 684 94 684 125C684 156 660 180 629 180ZM630 -71C599 -71 576 -94 576 -125C576 -156 599 -179 630 -179C661 -179 684 -156 684 -125C684 -94 661 -71 630 -71Z" transform="translate(58,379) scale(0.028, -0.028)"/><path d="M50 418H566.0" stroke="black" stroke-width=".55"/><path d="M50 425H566.0" stroke="black" stroke-width=".55"/><path d="M50 432H566.0" stroke="black" stroke-width=".55"/><path d="M50 439H566.0" stroke="black" stroke-width=".55"/><path d="M50 446H566.0" stroke="black" stroke-width=".55"/><path d="M50 474H566.0" stroke="black" stroke-width=".55"/><path d="M50 481H566.0" stroke="black" stroke-width=".55"/><path d="M50 488H566.0" stroke="black" stroke-width=".55"/><path d="M50 495H566.0" stroke="black" stroke-width=".55"/><path d="M50 502H566.0" stroke="black" stroke-width=".55"/><path d="M50 418V502 M43 418 C31 428 43 451 33 460 C43 469 31 492 43 502" fill="none" stroke="black"/><path d="M376 415C374 427 376 428 382 434C398 449 419 470 438 491C522 583 572 702 572 815C572 902 548 988 507 1048C492 1070 466 1098 455 1098C441 1098 410 1072 390 1050C316 968 292 843 292 739C292 681 299 616 306 575C308 563 309 561 297 551C233 498 164 437 112 373C43 287 0 194 0 87C0 -87 119 -252 364 -252C387 -252 413 -250 433 -246C444 -244 446 -243 448 -255C460 -322 475 -409 475 -456C475 -604 375 -622 316 -622C262 -622 236 -606 236 -593C236 -586 245 -583 268 -576C299 -567 335 -540 335 -482C335 -427 300 -380 239 -380C172 -380 132 -433 132 -495C132 -560 171 -658 322 -658C389 -658 519 -628 519 -458C519 -401 501 -306 490 -244C488 -232 489 -233 503 -227C604 -187 671 -102 671 11C671 139 577 252 430 252C404 252 404 252 401 270ZM470 943C503 943 530 916 530 861C530 792 497 728 419 650C403 634 379 611 356 591C349 585 345 586 343 599C339 625 337 659 337 691C337 847 409 943 470 943ZM361 262C364 243 364 244 346 238C258 208 201 129 201 44C201 -46 248 -110 316 -133C324 -136 336 -139 343 -139C351 -139 355 -134 355 -128C355 -121 347 -118 340 -115C298 -97 268 -54 268 -8C268 49 307 92 368 109C384 113 386 112 388 101L438 -197C440 -208 439 -208 424 -211C408 -214 388 -216 368 -216C193 -216 80 -119 80 20C80 79 90 158 173 252C233 319 279 356 326 394C336 402 338 401 340 390ZM430 103C428 115 429 118 441 117C522 110 589 42 589 -46C589 -109 551 -160 495 -188C483 -194 481 -194 479 -182Z" transform="translate(58,439) scale(0.028, -0.028)"/><path d="M252 262C78 262 0 135 0 39C0 -41 42 -110 123 -110C186 -110 229 -66 229 -4C229 60 182 100 133 100C106 100 96 93 83 93C70 93 67 101 67 111C67 151 127 224 229 224C335 224 381 120 381 -37C381 -140 359 -260 297 -356C237 -449 134 -534 10 -605C1 -610 -5 -615 -5 -623C-5 -629 -1 -635 8 -635C13 -635 19 -633 25 -630C158 -565 286 -489 392 -375C479 -281 531 -159 531 -28C531 146 425 262 252 262ZM629 180C598 180 574 156 574 125C574 94 598 70 629 70C660 70 684 94 684 125C684 156 660 180 629 180ZM630 -71C599 -71 576 -94 576 -125C576 -156 599 -179 630 -179C661 -179 684 -156 684 -125C684 -94 661 -71 630 -71Z" transform="translate(58,481) scale(0.028, -0.028)"/><path d="M50 520H566.0" stroke="black" stroke-width=".55"/><path d="M50 527H566.0" stroke="black" stroke-width=".55"/><path d="M50 534H566.0" stroke="black" stroke-width=".55"/><path d="M50 541H566.0" stroke="black" stroke-width=".55"/><path d="M50 548H566.0" stroke="black" stroke-width=".55"/><path d="M50 576H566.0" stroke="black" stroke-width=".55"/><path d="M50 583H566.0" stroke="black" stroke-width=".55"/><path d="M50 590H566.0" stroke="black" stroke-width=".55"/><path d="M50 597H566.0" stroke="black" stroke-width=".55"/><path d="M50 604H566.0" stroke="black" stroke-width=".55"/><path d="M50 520V604 M43 520 C31 530 43 553 33 562 C43 571 31 594 43 604" fill="none" stroke="black"/><path d="M376 415C374 427 376 428 382 434C398 449 419 470 438 491C522 583 572 702 572 815C572 902 548 988 507 1048C492 1070 466 1098 455 1098C441 1098 410 1072 390 1050C316 968 292 843 292 739C292 681 299 616 306 575C308 563 309 561 297 551C233 498 164 437 112 373C43 287 0 194 0 87C0 -87 119 -252 364 -252C387 -252 413 -250 433 -246C444 -244 446 -243 448 -255C460 -322 475 -409 475 -456C475 -604 375 -622 316 -622C262 -622 236 -606 236 -593C236 -586 245 -583 268 -576C299 -567 335 -540 335 -482C335 -427 300 -380 239 -380C172 -380 132 -433 132 -495C132 -560 171 -658 322 -658C389 -658 519 -628 519 -458C519 -401 501 -306 490 -244C488 -232 489 -233 503 -227C604 -187 671 -102 671 11C671 139 577 252 430 252C404 252 404 252 401 270ZM470 943C503 943 530 916 530 861C530 792 497 728 419 650C403 634 379 611 356 591C349 585 345 586 343 599C339 625 337 659 337 691C337 847 409 943 470 943ZM361 262C364 243 364 244 346 238C258 208 201 129 201 44C201 -46 248 -110 316 -133C324 -136 336 -139 343 -139C351 -139 355 -134 355 -128C355 -121 347 -118 340 -115C298 -97 268 -54 268 -8C268 49 307 92 368 109C384 113 386 112 388 101L438 -197C440 -208 439 -208 424 -211C408 -214 388 -216 368 -216C193 -216 80 -119 80 20C80 79 90 158 173 252C233 319 279 356 326 394C336 402 338 401 340 390ZM430 103C428 115 429 118 441 117C522 110 589 42 589 -46C589 -109 551 -160 495 -188C483 -194 481 -194 479 -182Z" transform="translate(58,541) scale(0.028, -0.028)"/><path d="M252 262C78 262 0 135 0 39C0 -41 42 -110 123 -110C186 -110 229 -66 229 -4C229 60 182 100 133 100C106 100 96 93 83 93C70 93 67 101 67 111C67 151 127 224 229 224C335 224 381 120 381 -37C381 -140 359 -260 297 -356C237 -449 134 -534 10 -605C1 -610 -5 -615 -5 -623C-5 -629 -1 -635 8 -635C13 -635 19 -633 25 -630C158 -565 286 -489 392 -375C479 -281 531 -159 531 -28C531 146 425 262 252 262ZM629 180C598 180 574 156 574 125C574 94 598 70 629 70C660 70 684 94 684 125C684 156 660 180 629 180ZM630 -71C599 -71 576 -94 576 -125C576 -156 599 -179 630 -179C661 -179 684 -156 684 -125C684 -94 661 -71 630 -71Z" transform="translate(58,583) scale(0.028, -0.028)"/><path d="M50 622H566.0" stroke="black" stroke-width=".55"/><path d="M50 629H566.0" stroke="black" stroke-width=".55"/><path d="M50 636H566.0" stroke="black" stroke-width=".55"/><path d="M50 643H566.0" stroke="black" stroke-width=".55"/><path d="M50 650H566.0" stroke="black" stroke-width=".55"/><path d="M50 678H566.0" stroke="black" stroke-width=".55"/><path d="M50 685H566.0" stroke="black" stroke-width=".55"/><path d="M50 692H566.0" stroke="black" stroke-width=".55"/><path d="M50 699H566.0" stroke="black" stroke-width=".55"/><path d="M50 706H566.0" stroke="black" stroke-width=".55"/><path d="M50 622V706 M43 622 C31 632 43 655 33 664 C43 673 31 696 43 706" fill="none" stroke="black"/><path d="M376 415C374 427 376 428 382 434C398 449 419 470 438 491C522 583 572 702 572 815C572 902 548 988 507 1048C492 1070 466 1098 455 1098C441 1098 410 1072 390 1050C316 968 292 843 292 739C292 681 299 616 306 575C308 563 309 561 297 551C233 498 164 437 112 373C43 287 0 194 0 87C0 -87 119 -252 364 -252C387 -252 413 -250 433 -246C444 -244 446 -243 448 -255C460 -322 475 -409 475 -456C475 -604 375 -622 316 -622C262 -622 236 -606 236 -593C236 -586 245 -583 268 -576C299 -567 335 -540 335 -482C335 -427 300 -380 239 -380C172 -380 132 -433 132 -495C132 -560 171 -658 322 -658C389 -658 519 -628 519 -458C519 -401 501 -306 490 -244C488 -232 489 -233 503 -227C604 -187 671 -102 671 11C671 139 577 252 430 252C404 252 404 252 401 270ZM470 943C503 943 530 916 530 861C530 792 497 728 419 650C403 634 379 611 356 591C349 585 345 586 343 599C339 625 337 659 337 691C337 847 409 943 470 943ZM361 262C364 243 364 244 346 238C258 208 201 129 201 44C201 -46 248 -110 316 -133C324 -136 336 -139 343 -139C351 -139 355 -134 355 -128C355 -121 347 -118 340 -115C298 -97 268 -54 268 -8C268 49 307 92 368 109C384 113 386 112 388 101L438 -197C440 -208 439 -208 424 -211C408 -214 388 -216 368 -216C193 -216 80 -119 80 20C80 79 90 158 173 252C233 319 279 356 326 394C336 402 338 401 340 390ZM430 103C428 115 429 118 441 117C522 110 589 42 589 -46C589 -109 551 -160 495 -188C483 -194 481 -194 479 -182Z" transform="translate(58,643) scale(0.028, -0.028)"/><path d="M252 262C78 262 0 135 0 39C0 -41 42 -110 123 -110C186 -110 229 -66 229 -4C229 60 182 100 133 100C106 100 96 93 83 93C70 93 67 101 67 111C67 151 127 224 229 224C335 224 381 120 381 -37C381 -140 359 -260 297 -356C237 -449 134 -534 10 -605C1 -610 -5 -615 -5 -623C-5 -629 -1 -635 8 -635C13 -635 19 -633 25 -630C158 -565 286 -489 392 -375C479 -281 531 -159 531 -28C531 146 425 262 252 262ZM629 180C598 180 574 156 574 125C574 94 598 70 629 70C660 70 684 94 684 125C684 156 660 180 629 180ZM630 -71C599 -71 576 -94 576 -125C576 -156 599 -179 630 -179C661 -179 684 -156 684 -125C684 -94 661 -71 630 -71Z" transform="translate(58,685) scale(0.028, -0.028)"/></svg>