<svg xmlns="http://www.w3.org/2000/svg" viewBox="0 0 720 276" role="img" aria-labelledby="score-title score-desc">
<title id="score-title">Left-Hand Answer — four-bar original exercise</title>
<desc id="score-desc">Read a short bass-clef phrase and keep three beats in each bar.. Use the accompanying accessible event table for exact notes and durations.</desc>
<rect width="720" height="276" fill="white"/>
<text x="8" y="18" font-family="Arial, sans-serif" font-size="13" font-weight="normal" text-anchor="start" fill="#111">3/4  •  quarter note = 60  •  no pedal</text>
<line x1="68" y1="54" x2="700" y2="54" stroke="#111" stroke-width="0.8"/>
<line x1="68" y1="64" x2="700" y2="64" stroke="#111" stroke-width="0.8"/>
<line x1="68" y1="74" x2="700" y2="74" stroke="#111" stroke-width="0.8"/>
<line x1="68" y1="84" x2="700" y2="84" stroke="#111" stroke-width="0.8"/>
<line x1="68" y1="94" x2="700" y2="94" stroke="#111" stroke-width="0.8"/>
<text x="8" y="78" font-family="Arial, sans-serif" font-size="12" font-weight="bold" text-anchor="start" fill="#111">LH</text>
<path d="M50 123Q216 231 288 301Q336 348 373.0 408.5Q410 469 431.5 536.0Q453 603 453 669Q453 728 435.0 773.5Q417 819 383.0 845.0Q349 871 302 871Q284 871 264.5 867.0Q245 863 224 855Q181 839 158.0 813.5Q135 788 135 765Q135 756 143.0 752.0Q151 748 158 748Q168 748 183 752Q190 754 196.5 755.0Q203 756 210 756Q248 756 272.0 733.5Q296 711 296 674Q296 638 266.0 612.0Q236 586 195 586Q146 586 111.0 617.0Q76 648 76 697Q76 756 109.0 802.0Q142 848 198.5 874.0Q255 900 324 900Q400 900 460.0 867.0Q520 834 555.5 776.5Q591 719 591 646Q591 551 538 464Q511 419 476.5 379.0Q442 339 389.0 297.5Q336 256 256.0 208.0Q176 160 57 101ZM687 809Q710 809 726.0 793.0Q742 777 742 754Q742 731 726.0 715.5Q710 700 687 700Q664 700 648.0 715.5Q632 731 632 754Q632 777 648.0 793.0Q664 809 687 809ZM687 589Q710 589 726.0 573.0Q742 557 742 534Q742 511 726.0 495.5Q710 480 687 480Q664 480 648.0 495.5Q632 511 632 534Q632 557 648.0 573.0Q664 589 687 589Z" transform="translate(69.559 97.930) scale(0.048811 -0.048811)" fill="#111"/>
<text x="115" y="70" font-family="Arial, sans-serif" font-size="17" font-weight="bold" text-anchor="middle" fill="#111">3</text>
<text x="115" y="89" font-family="Arial, sans-serif" font-size="17" font-weight="bold" text-anchor="middle" fill="#111">4</text>
<text x="140.0" y="42" font-family="Arial, sans-serif" font-size="11" font-weight="normal" text-anchor="start" fill="#111">1</text>
<line x1="68" y1="54" x2="68" y2="94" stroke="#111" stroke-width="1"/>
<line x1="417.5" y1="54" x2="417.5" y2="94" stroke="#111" stroke-width="1"/>
<ellipse cx="165.0" cy="59" rx="6.4" ry="4.2" transform="rotate(-18 165.0 59)" fill="#111" stroke="#111" stroke-width="1.4"/>
<line x1="170.7" y1="58" x2="170.7" y2="27" stroke="#111" stroke-width="1.1"/>
<text x="165.0" y="124" font-family="Arial, sans-serif" font-size="11" font-weight="normal" text-anchor="middle" fill="#111">G3</text>
<ellipse cx="243.16666666666666" cy="69" rx="6.4" ry="4.2" transform="rotate(-18 243.16666666666666 69)" fill="#111" stroke="#111" stroke-width="1.4"/>
<line x1="248.86666666666665" y1="68" x2="248.86666666666665" y2="37" stroke="#111" stroke-width="1.1"/>
<text x="243.16666666666666" y="124" font-family="Arial, sans-serif" font-size="11" font-weight="normal" text-anchor="middle" fill="#111">E3</text>
<ellipse cx="321.3333333333333" cy="79" rx="6.4" ry="4.2" transform="rotate(-18 321.3333333333333 79)" fill="#111" stroke="#111" stroke-width="1.4"/>
<line x1="327.0333333333333" y1="78" x2="327.0333333333333" y2="47" stroke="#111" stroke-width="1.1"/>
<text x="321.3333333333333" y="124" font-family="Arial, sans-serif" font-size="11" font-weight="normal" text-anchor="middle" fill="#111">C3</text>
<text x="422.5" y="42" font-family="Arial, sans-serif" font-size="11" font-weight="normal" text-anchor="start" fill="#111">2</text>
<line x1="700.0" y1="54" x2="700.0" y2="94" stroke="#111" stroke-width="1"/>
<ellipse cx="447.5" cy="74" rx="6.4" ry="4.2" transform="rotate(-18 447.5 74)" fill="white" stroke="#111" stroke-width="1.4"/>
<line x1="453.2" y1="73" x2="453.2" y2="42" stroke="#111" stroke-width="1.1"/>
<text x="447.5" y="124" font-family="Arial, sans-serif" font-size="11" font-weight="normal" text-anchor="middle" fill="#111">D3</text>
<ellipse cx="603.8333333333333" cy="69" rx="6.4" ry="4.2" transform="rotate(-18 603.8333333333333 69)" fill="#111" stroke="#111" stroke-width="1.4"/>
<line x1="609.5333333333333" y1="68" x2="609.5333333333333" y2="37" stroke="#111" stroke-width="1.1"/>
<text x="603.8333333333333" y="124" font-family="Arial, sans-serif" font-size="11" font-weight="normal" text-anchor="middle" fill="#111">E3</text>
<line x1="68" y1="165" x2="700" y2="165" stroke="#111" stroke-width="0.8"/>
<line x1="68" y1="175" x2="700" y2="175" stroke="#111" stroke-width="0.8"/>
<line x1="68" y1="185" x2="700" y2="185" stroke="#111" stroke-width="0.8"/>
<line x1="68" y1="195" x2="700" y2="195" stroke="#111" stroke-width="0.8"/>
<line x1="68" y1="205" x2="700" y2="205" stroke="#111" stroke-width="0.8"/>
<text x="8" y="189" font-family="Arial, sans-serif" font-size="12" font-weight="bold" text-anchor="start" fill="#111">LH</text>
<path d="M50 123Q216 231 288 301Q336 348 373.0 408.5Q410 469 431.5 536.0Q453 603 453 669Q453 728 435.0 773.5Q417 819 383.0 845.0Q349 871 302 871Q284 871 264.5 867.0Q245 863 224 855Q181 839 158.0 813.5Q135 788 135 765Q135 756 143.0 752.0Q151 748 158 748Q168 748 183 752Q190 754 196.5 755.0Q203 756 210 756Q248 756 272.0 733.5Q296 711 296 674Q296 638 266.0 612.0Q236 586 195 586Q146 586 111.0 617.0Q76 648 76 697Q76 756 109.0 802.0Q142 848 198.5 874.0Q255 900 324 900Q400 900 460.0 867.0Q520 834 555.5 776.5Q591 719 591 646Q591 551 538 464Q511 419 476.5 379.0Q442 339 389.0 297.5Q336 256 256.0 208.0Q176 160 57 101ZM687 809Q710 809 726.0 793.0Q742 777 742 754Q742 731 726.0 715.5Q710 700 687 700Q664 700 648.0 715.5Q632 731 632 754Q632 777 648.0 793.0Q664 809 687 809ZM687 589Q710 589 726.0 573.0Q742 557 742 534Q742 511 726.0 495.5Q710 480 687 480Q664 480 648.0 495.5Q632 511 632 534Q632 557 648.0 573.0Q664 589 687 589Z" transform="translate(69.559 208.930) scale(0.048811 -0.048811)" fill="#111"/>
<text x="115" y="181" font-family="Arial, sans-serif" font-size="17" font-weight="bold" text-anchor="middle" fill="#111">3</text>
<text x="115" y="200" font-family="Arial, sans-serif" font-size="17" font-weight="bold" text-anchor="middle" fill="#111">4</text>
<text x="140.0" y="153" font-family="Arial, sans-serif" font-size="11" font-weight="normal" text-anchor="start" fill="#111">3</text>
<line x1="68" y1="165" x2="68" y2="205" stroke="#111" stroke-width="1"/>
<line x1="417.5" y1="165" x2="417.5" y2="205" stroke="#111" stroke-width="1"/>
<ellipse cx="165.0" cy="175" rx="6.4" ry="4.2" transform="rotate(-18 165.0 175)" fill="#111" stroke="#111" stroke-width="1.4"/>
<line x1="170.7" y1="174" x2="170.7" y2="143" stroke="#111" stroke-width="1.1"/>
<text x="165.0" y="235" font-family="Arial, sans-serif" font-size="11" font-weight="normal" text-anchor="middle" fill="#111">F3</text>
<ellipse cx="243.16666666666666" cy="180" rx="6.4" ry="4.2" transform="rotate(-18 243.16666666666666 180)" fill="#111" stroke="#111" stroke-width="1.4"/>
<line x1="248.86666666666665" y1="179" x2="248.86666666666665" y2="148" stroke="#111" stroke-width="1.1"/>
<text x="243.16666666666666" y="235" font-family="Arial, sans-serif" font-size="11" font-weight="normal" text-anchor="middle" fill="#111">E3</text>
<ellipse cx="321.3333333333333" cy="185" rx="6.4" ry="4.2" transform="rotate(-18 321.3333333333333 185)" fill="#111" stroke="#111" stroke-width="1.4"/>
<line x1="327.0333333333333" y1="184" x2="327.0333333333333" y2="153" stroke="#111" stroke-width="1.1"/>
<text x="321.3333333333333" y="235" font-family="Arial, sans-serif" font-size="11" font-weight="normal" text-anchor="middle" fill="#111">D3</text>
<text x="422.5" y="153" font-family="Arial, sans-serif" font-size="11" font-weight="normal" text-anchor="start" fill="#111">4</text>
<line x1="700.0" y1="165" x2="700.0" y2="205" stroke="#111" stroke-width="2"/>
<line x1="695.0" y1="165" x2="695.0" y2="205" stroke="#111" stroke-width="0.8"/>
<ellipse cx="447.5" cy="190" rx="6.4" ry="4.2" transform="rotate(-18 447.5 190)" fill="white" stroke="#111" stroke-width="1.4"/>
<line x1="453.2" y1="189" x2="453.2" y2="158" stroke="#111" stroke-width="1.1"/>
<circle cx="461.5" cy="187.5" r="2" fill="#111"/>
<text x="447.5" y="235" font-family="Arial, sans-serif" font-size="11" font-weight="normal" text-anchor="middle" fill="#111">C3</text>
</svg>